<svg width="234" height="225" viewBox="0 0 234 225" fill="none" xmlns="http://www.w3.org/2000/svg">
<path d="M32 113L124.5 30L217 113" stroke="black" stroke-width="9" stroke-linecap="round" stroke-linejoin="round"/>
<path d="M52.5872 96.5759V177.186C52.5872 183.294 52.8861 185.647 56.7442 189.966C65.0524 196.415 83.0722 187.807 83.0722 187.807C83.0722 187.807 114.845 173.795 124.13 159.912C124.13 159.912 131.977 168.511 143.516 175.497C155.055 182.483 183.16 196.937 190.57 193.472C197.981 190.007 196.596 183.294 196.596 177.186V96.5759" stroke="black" stroke-width="9" stroke-linecap="round" stroke-linejoin="round"/>
<path d="M125.176 154.757C109.372 139.317 98.1318 133.107 98.1318 123.77C98.1318 117.308 101.6 114.273 108.8 114.273C114.344 114.273 123.092 120.265 125 124.659C126.908 120.265 135.656 114.273 141.2 114.273C148.4 114.273 152.922 117.308 152.922 123.77C152.922 133.107 141.376 142.514 125.176 154.757ZM141.2 106C134.936 106 128.924 108.617 125 112.72C121.076 108.617 115.064 106 108.8 106C97.712 106 89 113.786 89 123.77C89 135.95 100.314 145.933 118.854 161.021L124.824 167L130.971 160.878C149.511 145.79 161 135.95 161 123.77C161 113.786 152.288 106 141.2 106Z" fill="black"/>
</svg>
