<svg width="164" height="152" viewBox="0 0 164 152" fill="none" xmlns="http://www.w3.org/2000/svg">
<g clip-path="url(#clip0_287_297)">
<path d="M116.574 133.504L128.379 134.5C129.946 134.494 131.459 133.802 132.585 132.554C133.717 131.3 134.361 129.588 134.361 127.794V58.7535V58.7532C134.361 58.6757 134.375 58.5646 134.442 58.4534C134.514 58.3338 134.622 58.2566 134.733 58.2174C134.917 58.1525 135.087 58.1986 135.155 58.219C135.324 58.2694 135.518 58.3774 135.705 58.4941C136.098 58.7395 136.644 59.1429 137.282 59.6419C138.564 60.6446 140.278 62.0815 142.011 63.5455C142.36 63.8407 142.71 64.1371 143.058 64.4314C144.439 65.5999 145.781 66.7357 146.882 67.6384C147.571 68.2038 148.159 68.6723 148.599 68.998C148.82 69.1615 148.995 69.2828 149.123 69.3612C149.158 69.3826 149.187 69.3991 149.209 69.4115C149.224 69.4058 149.243 69.3977 149.266 69.3863C149.343 69.348 149.44 69.2842 149.559 69.1896C150.391 68.5229 150.991 68.0418 151.422 67.6345C151.852 67.2281 152.067 66.936 152.173 66.6628C152.394 66.0932 152.405 65.5247 152.207 64.9469C152.118 64.6899 151.845 64.3196 151.226 63.7158C150.623 63.1274 149.762 62.3802 148.59 61.3643L116.59 33.6168L80.0081 1.89701L116.574 133.504ZM116.574 133.504L109.952 132.085C109.818 132.057 109.765 132.045 109.714 132.032C109.666 132.02 109.619 132.006 109.572 131.99C109.522 131.974 109.472 131.955 109.343 131.907L102.137 129.205C101.959 129.138 101.889 129.112 101.822 129.082C101.79 129.068 101.759 129.053 101.727 129.037C101.698 129.022 101.668 129.007 101.639 128.991C101.575 128.955 101.511 128.916 101.35 128.814L92.2859 123.089L83.805 116.604L83.8037 116.603L79.2332 113.084L79.1374 113.01C78.1819 112.274 77.5833 111.813 76.908 111.632C76.3132 111.472 75.6868 111.472 75.092 111.632C74.4167 111.813 73.8181 112.274 72.8626 113.01L72.7668 113.084L68.195 116.604L68.1949 116.604L68.1847 116.612L60.2039 123.096L53.7446 127.363L47.0904 130.886C46.9651 130.953 46.9158 130.979 46.8664 131.002C46.8204 131.024 46.7737 131.044 46.7265 131.063C46.6757 131.083 46.6232 131.102 46.4892 131.148L43.2499 132.273C43.09 132.329 43.0272 132.35 42.9645 132.368C42.9062 132.385 42.8472 132.4 42.7878 132.412C42.724 132.426 42.6584 132.436 42.491 132.462L32.4468 134.002L24.3108 134.5C22.7419 134.496 21.2263 133.803 20.0994 132.554C18.968 131.3 18.3245 129.59 18.3238 127.797C18.3238 127.796 18.3238 127.795 18.3238 127.794L19.1907 58.7598H19.1908V58.7535C19.1907 58.6063 19.1452 58.3785 18.9321 58.2273C18.743 58.093 18.5363 58.1048 18.4258 58.1221C18.2011 58.1571 17.9506 58.2837 17.7228 58.4177C17.2374 58.703 16.5721 59.1968 15.8137 59.8035C14.2879 61.0242 12.3013 62.7705 10.449 64.4204C8.85488 65.8403 7.67187 66.8939 6.78936 67.6141C6.34826 67.9741 5.99303 68.2419 5.70675 68.4275C5.41164 68.6188 5.22853 68.6966 5.12557 68.7183C4.76857 68.7932 4.50215 68.8076 4.25876 68.7732C4.01537 68.7388 3.76335 68.6512 3.44106 68.4804C3.20473 68.3551 2.87738 68.0222 2.3637 67.3014C1.86404 66.6003 1.24057 65.6119 0.393934 64.2692C0.212295 63.9811 0.103313 63.759 0.0577208 63.6103C0.0557243 63.6038 0.0539231 63.5977 0.052298 63.5919L72.6737 1.89939L72.6765 1.89701C73.7313 0.987619 75.0215 0.5 76.3423 0.5C77.6627 0.5 78.9524 0.987289 80.007 1.89608L116.574 133.504ZM87.6766 112.881L87.688 112.891L87.7 112.9L95.7 118.9L95.717 118.913L95.735 118.924L103.735 123.924L103.762 123.941L103.79 123.954L109.744 126.702L109.761 126.71C109.949 126.797 110.068 126.851 110.191 126.897C110.3 126.938 110.411 126.973 110.524 127.003C110.651 127.036 110.779 127.06 110.982 127.098L111.001 127.101L116.977 128.205C117.134 128.234 117.23 128.252 117.328 128.265C117.359 128.269 117.39 128.273 117.421 128.276C117.475 128.281 117.529 128.285 117.583 128.288C117.682 128.294 117.78 128.294 117.94 128.294H122.275H122.297C123.118 128.294 123.765 128.294 124.286 128.251C124.817 128.208 125.261 128.118 125.664 127.912C126.322 127.577 126.858 127.041 127.193 126.383C127.399 125.98 127.489 125.536 127.532 125.005C127.575 124.484 127.575 123.837 127.575 123.016V122.994V54.7565V54.6834C127.575 53.924 127.575 53.4469 127.454 52.9981C127.347 52.6011 127.171 52.2261 126.933 51.8903C126.665 51.5107 126.297 51.2063 125.713 50.7219L125.656 50.6753L79.7613 12.6481L79.7459 12.6354C79.2079 12.1895 78.7825 11.837 78.4148 11.5763C78.0385 11.3095 77.6939 11.1173 77.31 11.0097C76.6787 10.8329 76.0103 10.8369 75.3812 11.0213C74.9986 11.1334 74.6564 11.3297 74.2833 11.6011C73.9188 11.8661 73.4978 12.2236 72.9652 12.6757L72.9497 12.6889L27.6562 51.142L27.6013 51.1886C27.031 51.6726 26.6726 51.9768 26.4112 52.3534C26.1799 52.6865 26.0083 53.0574 25.904 53.4493C25.7861 53.8923 25.7862 54.3623 25.7863 55.1104L25.7863 55.1823V122.48V122.504C25.7863 123.404 25.7863 124.112 25.8343 124.678C25.8832 125.254 25.9847 125.731 26.2175 126.156C26.5963 126.847 27.1971 127.389 27.9225 127.696C28.3685 127.885 28.8542 127.938 29.4319 127.928C29.9995 127.918 30.7038 127.847 31.5999 127.756L31.6228 127.753L38.5955 127.044L38.6105 127.042C38.7669 127.026 38.8654 127.016 38.964 127.001C39.0516 126.987 39.1386 126.969 39.2249 126.949C39.3221 126.925 39.417 126.897 39.5679 126.852L39.5819 126.847L44.1437 125.479L44.1761 125.469L44.2069 125.455L49.3535 123.116C49.4818 123.057 49.5608 123.022 49.6386 122.982C49.7055 122.947 49.7714 122.911 49.836 122.872C49.9088 122.828 49.9787 122.782 50.0897 122.708L50.1003 122.701L55.7774 118.916L55.7954 118.904L55.8123 118.89L63.3052 112.896L73.5808 105.281C74.1329 104.872 74.5257 104.581 74.8542 104.373C75.1774 104.168 75.4102 104.061 75.6335 104.008C76.0708 103.903 76.5284 103.918 76.958 104.051C77.1773 104.12 77.4025 104.241 77.7116 104.466C78.0258 104.696 78.3987 105.012 78.9227 105.456L87.6766 112.881Z" fill="black" stroke="black"/>
<path d="M76.7649 102.545C63.7615 90.0223 54.5136 84.9857 54.5136 77.4125C54.5136 72.1716 57.3672 69.7098 63.2913 69.7098C67.8528 69.7098 75.0506 74.5699 76.6205 78.1337C78.1903 74.5699 85.3881 69.7098 89.9497 69.7098C95.8738 69.7098 99.5944 72.1716 99.5944 77.4125C99.5944 84.9857 90.0941 92.6152 76.7649 102.545ZM89.9497 63C84.7957 63 79.8491 65.1226 76.6205 68.4506C73.3918 65.1226 68.4452 63 63.2913 63C54.1682 63 47 69.3153 47 77.4125C47 87.2917 56.3087 95.3889 71.5632 107.626L76.476 112.476L81.5331 107.51C96.7876 95.2729 106.241 87.2917 106.241 77.4125C106.241 69.3153 99.0728 63 89.9497 63Z" fill="black"/>
</g>
<defs>
<clipPath id="clip0_287_297">
<rect width="164" height="152" fill="white"/>
</clipPath>
</defs>
</svg>

